<svg width="20" height="20" viewBox="0 0 20 20" fill="none" xmlns="http://www.w3.org/2000/svg">
<g clip-path="url(#clip0_429_264)">
<path d="M14.799 11.4922C14.76 11.4735 13.302 10.7555 13.0429 10.6623C12.9371 10.6243 12.8238 10.5872 12.7033 10.5872C12.5064 10.5872 12.341 10.6853 12.2122 10.878C12.0665 11.0945 11.6256 11.6099 11.4894 11.7639C11.4716 11.7842 11.4473 11.8085 11.4328 11.8085C11.4197 11.8085 11.1941 11.7156 11.1257 11.6859C9.56165 11.0065 8.37444 9.37265 8.21165 9.09713C8.1884 9.05752 8.18743 9.03954 8.18723 9.03954C8.19295 9.01856 8.24555 8.96584 8.27269 8.93863C8.35211 8.86006 8.43814 8.75649 8.52139 8.65629C8.56081 8.60882 8.60029 8.56129 8.63905 8.51649C8.75983 8.37597 8.8136 8.26687 8.87594 8.14051L8.9086 8.07486C9.06081 7.77246 8.93081 7.51726 8.88879 7.43486C8.85431 7.3659 8.23866 5.88006 8.17321 5.72395C8.01581 5.34726 7.80782 5.17188 7.51879 5.17188C7.49198 5.17188 7.51879 5.17187 7.40633 5.17662C7.26938 5.18239 6.5236 5.28058 6.19386 5.48843C5.84418 5.70889 5.25262 6.41162 5.25262 7.64746C5.25262 8.75973 5.95847 9.80993 6.26152 10.2093C6.26905 10.2194 6.28288 10.2399 6.30295 10.2692C7.46353 11.9641 8.91035 13.2203 10.377 13.8062C11.7891 14.3702 12.4577 14.4354 12.8378 14.4354C12.8379 14.4354 12.8379 14.4354 12.8379 14.4354C12.9976 14.4354 13.1255 14.4228 13.2383 14.4117L13.3098 14.4049C13.7976 14.3617 14.8696 13.8062 15.1134 13.1286C15.3055 12.5949 15.3561 12.0118 15.2283 11.8002C15.1408 11.6563 14.99 11.5839 14.799 11.4922Z" fill="#4D4D4D"/>
<path d="M10.1778 0C4.76114 0 0.354385 4.37364 0.354385 9.74955C0.354385 11.4883 0.819709 13.1903 1.7012 14.6799L0.0139953 19.6569C-0.0174333 19.7497 0.00594334 19.8523 0.0745797 19.9221C0.124125 19.9727 0.191333 20 0.259969 20C0.286268 20 0.312761 19.996 0.338606 19.9878L5.52821 18.3387C6.94834 19.0975 8.55341 19.498 10.1778 19.498C15.5939 19.4981 20.0002 15.1249 20.0002 9.74955C20.0002 4.37364 15.5939 0 10.1778 0ZM10.1778 17.4671C8.64925 17.4671 7.1688 17.0258 5.8962 16.1907C5.85341 16.1626 5.80373 16.1482 5.75373 16.1482C5.72731 16.1482 5.70081 16.1522 5.67503 16.1604L3.07536 16.9868L3.91458 14.5108C3.94172 14.4307 3.92815 14.3423 3.87815 14.274C2.90906 12.9499 2.39679 11.3854 2.39679 9.74955C2.39679 5.49351 5.88731 2.03091 10.1777 2.03091C14.4676 2.03091 17.9577 5.49351 17.9577 9.74955C17.9578 14.0051 14.4677 17.4671 10.1778 17.4671Z" fill="#4D4D4D"/>
</g>
<defs>
<clipPath id="clip0_429_264">
<rect width="20" height="20" fill="white"/>
</clipPath>
</defs>
</svg>
