<svg width="16" height="89" viewBox="0 0 16 89" fill="none" xmlns="http://www.w3.org/2000/svg">
<path d="M1.32 83.225C1.32 81.935 1.64 80.87 2.28 80.03C2.91 79.19 3.775 78.61 4.875 78.29L4.875 79.73C4.175 80 3.62 80.435 3.21 81.035C2.79 81.635 2.58 82.37 2.58 83.24C2.58 83.93 2.75 84.55 3.09 85.1C3.42 85.64 3.9 86.07 4.53 86.39C5.15 86.7 5.88 86.855 6.72 86.855C7.55 86.855 8.275 86.7 8.895 86.39C9.515 86.07 9.995 85.64 10.335 85.1C10.665 84.55 10.83 83.93 10.83 83.24C10.83 82.37 10.625 81.635 10.215 81.035C9.795 80.435 9.235 80 8.535 79.73L8.535 78.29C9.635 78.61 10.505 79.19 11.145 80.03C11.775 80.87 12.09 81.935 12.09 83.225C12.09 84.215 11.865 85.09 11.415 85.85C10.955 86.61 10.32 87.205 9.51 87.635C8.69 88.055 7.76 88.265 6.72 88.265C5.67 88.265 4.735 88.055 3.915 87.635C3.095 87.205 2.46 86.61 2.01 85.85C1.55 85.09 1.32 84.215 1.32 83.225ZM3.66 72.7296C3.66 71.9396 3.83 71.2346 4.17 70.6146C4.51 69.9846 5 69.4946 5.64 69.1446C6.28 68.7846 7.03 68.6046 7.89 68.6046C8.75 68.6046 9.5 68.7846 10.14 69.1446C10.77 69.4946 11.255 69.9846 11.595 70.6146C11.935 71.2346 12.105 71.9396 12.105 72.7296C12.105 73.5196 11.935 74.2296 11.595 74.8596C11.255 75.4796 10.77 75.9696 10.14 76.3296C9.5 76.6896 8.75 76.8696 7.89 76.8696C7.03 76.8696 6.28 76.6896 5.64 76.3296C5 75.9696 4.51 75.4796 4.17 74.8596C3.83 74.2296 3.66 73.5196 3.66 72.7296ZM4.86 72.7296C4.86 73.2196 4.97 73.6746 5.19 74.0946C5.41 74.5046 5.75 74.8396 6.21 75.0996C6.66 75.3496 7.22 75.4746 7.89 75.4746C8.55 75.4746 9.11 75.3496 9.57 75.0996C10.02 74.8396 10.355 74.5046 10.575 74.0946C10.795 73.6746 10.905 73.2196 10.905 72.7296C10.905 72.2396 10.795 71.7896 10.575 71.3796C10.355 70.9596 10.02 70.6246 9.57 70.3746C9.11 70.1146 8.55 69.9846 7.89 69.9846C7.22 69.9846 6.66 70.1146 6.21 70.3746C5.75 70.6246 5.41 70.9596 5.19 71.3796C4.97 71.7896 4.86 72.2396 4.86 72.7296ZM3.63 56.7009C3.63 55.7409 3.94 54.9709 4.56 54.3909C5.17 53.8009 6.055 53.5059 7.215 53.5059L12 53.5059L12 54.8709L7.335 54.8709C6.525 54.8709 5.905 55.0709 5.475 55.4709C5.045 55.8609 4.83 56.4009 4.83 57.0909C4.83 57.8109 5.07 58.3909 5.55 58.8309C6.02 59.2609 6.715 59.4759 7.635 59.4759L12 59.4759L12 60.8409L7.335 60.8409C6.525 60.8409 5.905 61.0409 5.475 61.4409C5.045 61.8409 4.83 62.3809 4.83 63.0609C4.83 63.7909 5.07 64.3759 5.55 64.8159C6.02 65.2459 6.715 65.4609 7.635 65.4609L12 65.4609L12 66.8259L3.765 66.8259L3.765 65.4609L5.64 65.4609C4.99 65.2609 4.495 64.9059 4.155 64.3959C3.805 63.8759 3.63 63.2809 3.63 62.6109C3.63 61.9109 3.81 61.3059 4.17 60.7959C4.52 60.2759 5.04 59.9059 5.73 59.6859C5.06 59.4559 4.545 59.0709 4.185 58.5309C3.815 57.9909 3.63 57.3809 3.63 56.7009ZM3.63 41.2614C3.63 40.3014 3.94 39.5314 4.56 38.9514C5.17 38.3614 6.055 38.0664 7.215 38.0664L12 38.0664L12 39.4314L7.335 39.4314C6.525 39.4314 5.905 39.6314 5.475 40.0314C5.045 40.4214 4.83 40.9614 4.83 41.6514C4.83 42.3714 5.07 42.9514 5.55 43.3914C6.02 43.8214 6.715 44.0364 7.635 44.0364L12 44.0364L12 45.4014L7.335 45.4014C6.525 45.4014 5.905 45.6014 5.475 46.0014C5.045 46.4014 4.83 46.9414 4.83 47.6214C4.83 48.3514 5.07 48.9364 5.55 49.3764C6.02 49.8064 6.715 50.0214 7.635 50.0214L12 50.0214L12 51.3864L3.765 51.3864L3.765 50.0214L5.64 50.0214C4.99 49.8214 4.495 49.4664 4.155 48.9564C3.805 48.4364 3.63 47.8414 3.63 47.1714C3.63 46.4714 3.81 45.8664 4.17 45.3564C4.52 44.8364 5.04 44.4664 5.73 44.2464C5.06 44.0164 4.545 43.6314 4.185 43.0914C3.815 42.5514 3.63 41.9414 3.63 41.2614ZM3.765 28.627L12 28.627L12 29.992L10.065 29.992C10.735 30.202 11.25 30.577 11.61 31.117C11.96 31.647 12.135 32.267 12.135 32.977C12.135 33.927 11.83 34.697 11.22 35.287C10.6 35.877 9.715 36.172 8.565 36.172L3.765 36.172L3.765 34.807L8.43 34.807C9.25 34.807 9.885 34.597 10.335 34.177C10.775 33.757 10.995 33.187 10.995 32.467C10.995 31.717 10.755 31.117 10.275 30.667C9.785 30.217 9.075 29.992 8.145 29.992L3.765 29.992L3.765 28.627ZM3.63 22.1052C3.63 21.1452 3.94 20.3702 4.56 19.7802C5.17 19.1902 6.055 18.8952 7.215 18.8952L12 18.8952L12 20.2602L7.335 20.2602C6.515 20.2602 5.885 20.4702 5.445 20.8902C5.005 21.3102 4.785 21.8802 4.785 22.6002C4.785 23.3502 5.03 23.9502 5.52 24.4002C6 24.8502 6.705 25.0752 7.635 25.0752L12 25.0752L12 26.4402L3.765 26.4402L3.765 25.0752L5.715 25.0752C5.045 24.8652 4.53 24.4952 4.17 23.9652C3.81 23.4252 3.63 22.8052 3.63 22.1052ZM1.35 17.0415C1.1 17.0415 0.899996 16.9565 0.749996 16.7865C0.589996 16.6165 0.509996 16.3915 0.509996 16.1115C0.509996 15.8315 0.589996 15.6065 0.749996 15.4365C0.899996 15.2665 1.1 15.1815 1.35 15.1815C1.6 15.1815 1.805 15.2665 1.965 15.4365C2.115 15.6065 2.19 15.8315 2.19 16.1115C2.19 16.3915 2.115 16.6165 1.965 16.7865C1.805 16.9565 1.6 17.0415 1.35 17.0415ZM3.765 15.4365L12 15.4365L12 16.8015L3.765 16.8015L3.765 15.4365ZM10.8 9.31191L12 9.31191L12 10.3319C12 11.1719 11.8 11.8019 11.4 12.2219C11 12.6319 10.33 12.8369 9.39 12.8369L4.95 12.8369L4.95 14.0669L3.765 14.0669L3.765 12.8369L1.71 12.8369L1.71 11.4569L3.765 11.4569L3.765 9.32691L4.95 9.32691L4.95 11.4569L9.42 11.4569C9.95 11.4569 10.315 11.3619 10.515 11.1719C10.705 10.9719 10.8 10.6319 10.8 10.1519L10.8 9.31191ZM3.765 7.07621L10.245 4.40621L3.765 1.93121L3.765 0.416211L15.9 5.30621L15.9 6.85121L11.865 5.14121L3.765 8.60621L3.765 7.07621Z" fill="white"/>
</svg>
