<svg width="20" height="20" viewBox="0 0 20 20" fill="none" xmlns="http://www.w3.org/2000/svg">
<g clip-path="url(#clip0_429_257)">
<path d="M14.375 0H5.625C2.5 0 0 2.5 0 5.625V9.375V14.375C0 17.5 2.5 20 5.625 20H14.375C17.5 20 20 17.5 20 14.375V9.375V5.625C20 2.5 17.5 0 14.375 0Z" fill="#4D4D4D"/>
<path d="M10 15C12.7614 15 15 12.7614 15 10C15 7.23858 12.7614 5 10 5C7.23858 5 5 7.23858 5 10C5 12.7614 7.23858 15 10 15Z" stroke="white" stroke-width="2" stroke-miterlimit="10"/>
<path d="M15.625 5C16.3154 5 16.875 4.44036 16.875 3.75C16.875 3.05964 16.3154 2.5 15.625 2.5C14.9346 2.5 14.375 3.05964 14.375 3.75C14.375 4.44036 14.9346 5 15.625 5Z" fill="white"/>
</g>
<defs>
<clipPath id="clip0_429_257">
<rect width="20" height="20" fill="white"/>
</clipPath>
</defs>
</svg>
