<svg width="20" height="20" viewBox="0 0 20 20" fill="none" xmlns="http://www.w3.org/2000/svg">
<path d="M0.385353 15.0001C1.23025 14.8969 2.08701 15.008 2.93191 14.8692C3.35631 14.8018 3.74505 14.659 4.12981 14.5082C3.17786 13.8974 2.32102 13.1993 1.5238 12.3624C1.23822 12.0648 1.44444 11.5651 1.86097 11.5532C2.20211 11.569 2.53529 11.5413 2.86052 11.4738C2.03145 10.4227 1.38888 9.29223 0.889109 8.02293C0.754278 7.68179 1.1509 7.33675 1.47222 7.43982C1.65863 7.5152 1.84902 7.56678 2.04339 7.60641C1.4524 6.18636 1.32943 4.75445 1.65863 3.18364C1.73401 2.82268 2.20999 2.73544 2.45195 2.97343C4.34798 4.83762 6.74379 5.73409 9.30618 6.16247C9.08005 4.40924 10.3256 2.54497 11.9598 1.93407C13.3164 1.43032 15.1371 1.77544 16.0494 2.91779C16.6603 2.53302 17.5051 2.40607 18.1834 2.28708C18.5404 2.22754 18.8855 2.57664 18.6753 2.92964C18.4293 3.34218 18.1953 3.78242 17.9375 4.20292C18.4611 4.04819 19.0006 3.95299 19.54 3.88558C19.9288 3.834 20.1628 4.43295 19.8653 4.67094C19.2346 5.17469 18.6079 5.74985 17.9375 6.20998C17.9177 10.6644 16.6167 14.401 12.6382 16.9356C9.32202 19.0539 3.15796 18.6969 0.274321 15.8132H0.27034C0.143384 15.7814 0.0759687 15.6862 0.0521699 15.5832C-0.0588623 15.4166 0.0204093 15.2103 0.167183 15.131C0.222742 15.0635 0.294139 15.0119 0.385353 15.0001Z" fill="#4D4D4D"/>
</svg>
