<svg width="16" height="118" viewBox="0 0 16 118" fill="none" xmlns="http://www.w3.org/2000/svg">
<path d="M9.555 110.71L9.555 115.36L12 116.245L12 117.715L1.62 113.8L1.62 112.255L12 108.355L12 109.825L9.555 110.71ZM8.49 111.1L3.15 113.035L8.49 114.97L8.49 111.1ZM3.66 102.428C3.66 101.698 3.83 101.048 4.17 100.478C4.51 99.9084 5 99.4634 5.64 99.1434C6.28 98.8134 7.03 98.6484 7.89 98.6484C8.75 98.6484 9.5 98.8134 10.14 99.1434C10.77 99.4634 11.255 99.9084 11.595 100.478C11.935 101.048 12.105 101.698 12.105 102.428C12.105 103.228 11.905 103.908 11.505 104.468C11.095 105.018 10.56 105.398 9.9 105.608L12 105.608L12 106.973L0.899999 106.973L0.899999 105.608L5.865 105.608C5.205 105.398 4.675 105.018 4.275 104.468C3.865 103.908 3.66 103.228 3.66 102.428ZM4.875 102.818C4.875 103.348 5 103.828 5.25 104.258C5.49 104.688 5.84 105.023 6.3 105.263C6.76 105.503 7.29 105.623 7.89 105.623C8.49 105.623 9.02 105.503 9.48 105.263C9.93 105.023 10.28 104.688 10.53 104.258C10.78 103.828 10.905 103.348 10.905 102.818C10.905 101.968 10.64 101.293 10.11 100.793C9.57 100.283 8.83 100.028 7.89 100.028C6.95 100.028 6.215 100.283 5.685 100.793C5.145 101.293 4.875 101.968 4.875 102.818ZM3.66 93.1309C3.66 92.3409 3.83 91.6359 4.17 91.0159C4.51 90.3859 5 89.8959 5.64 89.5459C6.28 89.1859 7.03 89.0059 7.89 89.0059C8.75 89.0059 9.5 89.1859 10.14 89.5459C10.77 89.8959 11.255 90.3859 11.595 91.0159C11.935 91.6359 12.105 92.3409 12.105 93.1309C12.105 93.9209 11.935 94.6309 11.595 95.2609C11.255 95.8809 10.77 96.3709 10.14 96.7309C9.5 97.0909 8.75 97.2709 7.89 97.2709C7.03 97.2709 6.28 97.0909 5.64 96.7309C5 96.3709 4.51 95.8809 4.17 95.2609C3.83 94.6309 3.66 93.9209 3.66 93.1309ZM4.86 93.1309C4.86 93.6209 4.97 94.0759 5.19 94.4959C5.41 94.9059 5.75 95.2409 6.21 95.5009C6.66 95.7509 7.22 95.8759 7.89 95.8759C8.55 95.8759 9.11 95.7509 9.57 95.5009C10.02 95.2409 10.355 94.9059 10.575 94.4959C10.795 94.0759 10.905 93.6209 10.905 93.1309C10.905 92.6409 10.795 92.1909 10.575 91.7809C10.355 91.3609 10.02 91.0259 9.57 90.7759C9.11 90.5159 8.55 90.3859 7.89 90.3859C7.22 90.3859 6.66 90.5159 6.21 90.7759C5.75 91.0259 5.41 91.3609 5.19 91.7809C4.97 92.1909 4.86 92.6409 4.86 93.1309ZM3.765 79.9073L12 79.9073L12 81.2723L10.065 81.2723C10.735 81.4823 11.25 81.8573 11.61 82.3973C11.96 82.9273 12.135 83.5473 12.135 84.2573C12.135 85.2073 11.83 85.9773 11.22 86.5673C10.6 87.1573 9.715 87.4523 8.565 87.4523L3.765 87.4523L3.765 86.0873L8.43 86.0873C9.25 86.0873 9.885 85.8773 10.335 85.4573C10.775 85.0373 10.995 84.4673 10.995 83.7473C10.995 82.9973 10.755 82.3973 10.275 81.9473C9.785 81.4973 9.075 81.2723 8.145 81.2723L3.765 81.2723L3.765 79.9073ZM10.8 73.7904L12 73.7904L12 74.8104C12 75.6504 11.8 76.2804 11.4 76.7004C11 77.1104 10.33 77.3154 9.39 77.3154L4.95 77.3154L4.95 78.5454L3.765 78.5454L3.765 77.3154L1.71 77.3154L1.71 75.9354L3.765 75.9354L3.765 73.8054L4.95 73.8054L4.95 75.9354L9.42 75.9354C9.95 75.9354 10.315 75.8404 10.515 75.6504C10.705 75.4504 10.8 75.1104 10.8 74.6304L10.8 73.7904ZM1.605 57.8287L12 57.8287L12 59.1937L3.705 59.1937L12 62.5087L12 63.7237L3.735 67.0537L12 67.0537L12 68.4187L1.605 68.4187L1.605 66.7837L10.335 63.0937L1.605 59.4637L1.605 57.8287ZM3.66 51.9102C3.66 51.1202 3.83 50.4152 4.17 49.7952C4.51 49.1652 5 48.6752 5.64 48.3252C6.28 47.9652 7.03 47.7852 7.89 47.7852C8.75 47.7852 9.5 47.9652 10.14 48.3252C10.77 48.6752 11.255 49.1652 11.595 49.7952C11.935 50.4152 12.105 51.1202 12.105 51.9102C12.105 52.7002 11.935 53.4102 11.595 54.0402C11.255 54.6602 10.77 55.1502 10.14 55.5102C9.5 55.8702 8.75 56.0502 7.89 56.0502C7.03 56.0502 6.28 55.8702 5.64 55.5102C5 55.1502 4.51 54.6602 4.17 54.0402C3.83 53.4102 3.66 52.7002 3.66 51.9102ZM4.86 51.9102C4.86 52.4002 4.97 52.8552 5.19 53.2752C5.41 53.6852 5.75 54.0202 6.21 54.2802C6.66 54.5302 7.22 54.6552 7.89 54.6552C8.55 54.6552 9.11 54.5302 9.57 54.2802C10.02 54.0202 10.355 53.6852 10.575 53.2752C10.795 52.8552 10.905 52.4002 10.905 51.9102C10.905 51.4202 10.795 50.9702 10.575 50.5602C10.355 50.1402 10.02 49.8052 9.57 49.5552C9.11 49.2952 8.55 49.1652 7.89 49.1652C7.22 49.1652 6.66 49.2952 6.21 49.5552C5.75 49.8052 5.41 50.1402 5.19 50.5602C4.97 50.9702 4.86 51.4202 4.86 51.9102ZM3.63 41.6716C3.63 40.7116 3.94 39.9366 4.56 39.3466C5.17 38.7566 6.055 38.4616 7.215 38.4616L12 38.4616L12 39.8266L7.335 39.8266C6.515 39.8266 5.885 40.0366 5.445 40.4566C5.005 40.8766 4.785 41.4466 4.785 42.1666C4.785 42.9166 5.03 43.5166 5.52 43.9666C6 44.4166 6.705 44.6416 7.635 44.6416L12 44.6416L12 46.0066L3.765 46.0066L3.765 44.6416L5.715 44.6416C5.045 44.4316 4.53 44.0616 4.17 43.5316C3.81 42.9916 3.63 42.3716 3.63 41.6716ZM1.35 36.6079C1.1 36.6079 0.899996 36.5229 0.749996 36.3529C0.589996 36.1829 0.509996 35.9579 0.509996 35.6779C0.509996 35.3979 0.589996 35.1729 0.749995 35.0029C0.899996 34.8329 1.1 34.7479 1.35 34.7479C1.6 34.7479 1.805 34.8329 1.965 35.0029C2.115 35.1729 2.19 35.3979 2.19 35.6779C2.19 35.9579 2.115 36.1829 1.965 36.3529C1.805 36.5229 1.6 36.6079 1.35 36.6079ZM3.765 35.0029L12 35.0029L12 36.3679L3.765 36.3679L3.765 35.0029ZM3.66 28.2633C3.66 27.5333 3.83 26.8833 4.17 26.3133C4.51 25.7433 5 25.2983 5.64 24.9783C6.28 24.6483 7.03 24.4833 7.89 24.4833C8.75 24.4833 9.5 24.6483 10.14 24.9783C10.77 25.2983 11.255 25.7433 11.595 26.3133C11.935 26.8833 12.105 27.5333 12.105 28.2633C12.105 29.0633 11.905 29.7433 11.505 30.3033C11.095 30.8533 10.56 31.2333 9.9 31.4433L15.9 31.4433L15.9 32.8083L3.765 32.8083L3.765 31.4433L5.865 31.4433C5.205 31.2333 4.675 30.8533 4.275 30.3033C3.865 29.7433 3.66 29.0633 3.66 28.2633ZM4.875 28.6533C4.875 29.1833 5 29.6633 5.25 30.0933C5.49 30.5233 5.84 30.8583 6.3 31.0983C6.76 31.3383 7.29 31.4583 7.89 31.4583C8.49 31.4583 9.02 31.3383 9.48 31.0983C9.93 30.8583 10.28 30.5233 10.53 30.0933C10.78 29.6633 10.905 29.1833 10.905 28.6533C10.905 27.8033 10.64 27.1283 10.11 26.6283C9.57 26.1183 8.83 25.8633 7.89 25.8633C6.95 25.8633 6.215 26.1183 5.685 26.6283C5.145 27.1283 4.875 27.8033 4.875 28.6533ZM3.65999 19.3259C3.65999 18.5259 3.85999 17.8509 4.26 17.3009C4.66 16.7409 5.195 16.3509 5.865 16.1309L3.765 16.1309L3.765 14.7659L12 14.7659L12 16.1309L9.9 16.1309C10.57 16.3509 11.105 16.7409 11.505 17.3009C11.905 17.8509 12.105 18.5259 12.105 19.3259C12.105 20.0559 11.935 20.7059 11.595 21.2759C11.255 21.8459 10.77 22.2959 10.14 22.6259C9.5 22.9459 8.75 23.1059 7.89 23.1059C7.03 23.1059 6.28 22.9459 5.64 22.6259C5 22.2959 4.51 21.8459 4.17 21.2759C3.83 20.7059 3.65999 20.0559 3.65999 19.3259ZM4.875 18.9359C4.875 19.7759 5.145 20.4509 5.685 20.9609C6.215 21.4609 6.95 21.7109 7.89 21.7109C8.83 21.7109 9.57 21.4609 10.11 20.9609C10.64 20.4509 10.905 19.7759 10.905 18.9359C10.905 18.3959 10.78 17.9159 10.53 17.4959C10.28 17.0659 9.93 16.7309 9.48 16.4909C9.02 16.2509 8.49 16.1309 7.89 16.1309C7.29 16.1309 6.76 16.2509 6.3 16.4909C5.84 16.7309 5.49 17.0659 5.25 17.4959C5 17.9159 4.875 18.3959 4.875 18.9359ZM3.65999 9.21848C3.65999 8.41848 3.85999 7.74348 4.25999 7.19348C4.65999 6.63348 5.19499 6.24348 5.86499 6.02348L0.899995 6.02348L0.899995 4.65848L12 4.65848L12 6.02348L9.9 6.02348C10.57 6.24348 11.105 6.63348 11.505 7.19348C11.905 7.74348 12.105 8.41848 12.105 9.21848C12.105 9.94848 11.935 10.5985 11.595 11.1685C11.255 11.7385 10.77 12.1885 10.14 12.5185C9.5 12.8385 8.75 12.9985 7.89 12.9985C7.03 12.9985 6.28 12.8385 5.64 12.5185C4.99999 12.1885 4.50999 11.7385 4.17 11.1685C3.82999 10.5985 3.65999 9.94848 3.65999 9.21848ZM4.87499 8.82848C4.87499 9.66848 5.14499 10.3435 5.68499 10.8535C6.21499 11.3535 6.94999 11.6035 7.89 11.6035C8.83 11.6035 9.57 11.3535 10.11 10.8535C10.64 10.3435 10.905 9.66848 10.905 8.82848C10.905 8.28848 10.78 7.80848 10.53 7.38848C10.28 6.95848 9.93 6.62348 9.47999 6.38348C9.01999 6.14348 8.48999 6.02348 7.88999 6.02348C7.28999 6.02348 6.75999 6.14348 6.29999 6.38348C5.83999 6.62348 5.48999 6.95848 5.24999 7.38848C4.99999 7.80848 4.87499 8.28848 4.87499 8.82848ZM1.34999 2.72605C1.09999 2.72605 0.899995 2.64105 0.749994 2.47105C0.589994 2.30105 0.509994 2.07605 0.509994 1.79605C0.509994 1.51605 0.589994 1.29105 0.749994 1.12105C0.899994 0.951054 1.09999 0.866054 1.34999 0.866054C1.59999 0.866054 1.80499 0.951054 1.96499 1.12105C2.11499 1.29105 2.18999 1.51605 2.18999 1.79605C2.18999 2.07605 2.11499 2.30105 1.96499 2.47105C1.80499 2.64105 1.59999 2.72605 1.34999 2.72605ZM3.76499 1.12105L12 1.12105L12 2.48605L3.76499 2.48605L3.76499 1.12105Z" fill="#19A59E"/>
</svg>
