<svg width="13" height="57" viewBox="0 0 13 57" fill="none" xmlns="http://www.w3.org/2000/svg">
<path d="M7.74 55.54L12 55.54L12 56.905L1.425 56.905L1.425 53.545C1.425 52.335 1.71 51.43 2.28 50.83C2.84 50.23 3.61 49.93 4.59 49.93C5.58 49.93 6.355 50.24 6.915 50.86C7.465 51.48 7.74 52.375 7.74 53.545L7.74 55.54ZM6.6 53.665C6.6 52.835 6.425 52.24 6.075 51.88C5.725 51.51 5.23 51.325 4.59 51.325C3.93 51.325 3.43 51.51 3.09 51.88C2.74 52.24 2.565 52.835 2.565 53.665L2.565 55.54L6.6 55.54L6.6 53.665ZM5.43 46.9707C4.86 46.7007 4.42 46.3057 4.11 45.7857C3.79 45.2657 3.63 44.6457 3.63 43.9257L5.115 43.9257L5.115 44.3457C5.115 45.1157 5.315 45.7457 5.715 46.2357C6.105 46.7257 6.755 46.9707 7.665 46.9707L12 46.9707L12 48.3357L3.765 48.3357L3.765 46.9707L5.43 46.9707ZM3.66 38.8438C3.66 38.0538 3.83 37.3488 4.17 36.7288C4.51 36.0988 5 35.6088 5.64 35.2588C6.28 34.8988 7.03 34.7188 7.89 34.7188C8.75 34.7188 9.5 34.8988 10.14 35.2588C10.77 35.6088 11.255 36.0988 11.595 36.7288C11.935 37.3488 12.105 38.0538 12.105 38.8438C12.105 39.6338 11.935 40.3438 11.595 40.9738C11.255 41.5938 10.77 42.0838 10.14 42.4438C9.5 42.8038 8.75 42.9838 7.89 42.9838C7.03 42.9838 6.28 42.8038 5.64 42.4438C5 42.0838 4.51 41.5938 4.17 40.9738C3.83 40.3438 3.66 39.6338 3.66 38.8438ZM4.86 38.8438C4.86 39.3338 4.97 39.7888 5.19 40.2088C5.41 40.6188 5.75 40.9538 6.21 41.2138C6.66 41.4638 7.22 41.5888 7.89 41.5888C8.55 41.5888 9.11 41.4638 9.57 41.2138C10.02 40.9538 10.355 40.6188 10.575 40.2088C10.795 39.7888 10.905 39.3338 10.905 38.8438C10.905 38.3538 10.795 37.9038 10.575 37.4938C10.355 37.0738 10.02 36.7388 9.57 36.4888C9.11 36.2288 8.55 36.0988 7.89 36.0988C7.22 36.0988 6.66 36.2288 6.21 36.4888C5.75 36.7388 5.41 37.0738 5.19 37.4938C4.97 37.9038 4.86 38.3538 4.86 38.8438ZM3.66 29.5652C3.66 28.7652 3.86 28.0902 4.26 27.5402C4.66 26.9802 5.195 26.5902 5.865 26.3702L0.899998 26.3702L0.899998 25.0052L12 25.0052L12 26.3702L9.9 26.3702C10.57 26.5902 11.105 26.9802 11.505 27.5402C11.905 28.0902 12.105 28.7652 12.105 29.5652C12.105 30.2952 11.935 30.9452 11.595 31.5152C11.255 32.0852 10.77 32.5352 10.14 32.8652C9.5 33.1852 8.75 33.3452 7.89 33.3452C7.03 33.3452 6.28 33.1852 5.64 32.8652C5 32.5352 4.51 32.0852 4.17 31.5152C3.83 30.9452 3.66 30.2952 3.66 29.5652ZM4.875 29.1752C4.875 30.0152 5.145 30.6902 5.685 31.2002C6.215 31.7002 6.95 31.9502 7.89 31.9502C8.83 31.9502 9.57 31.7002 10.11 31.2002C10.64 30.6902 10.905 30.0152 10.905 29.1752C10.905 28.6352 10.78 28.1552 10.53 27.7352C10.28 27.3052 9.93 26.9702 9.48 26.7302C9.02 26.4902 8.49 26.3702 7.89 26.3702C7.29 26.3702 6.76 26.4902 6.3 26.7302C5.84 26.9702 5.49 27.3052 5.25 27.7352C5 28.1552 4.875 28.6352 4.875 29.1752ZM3.765 15.5127L12 15.5127L12 16.8777L10.065 16.8777C10.735 17.0877 11.25 17.4627 11.61 18.0027C11.96 18.5327 12.135 19.1527 12.135 19.8627C12.135 20.8127 11.83 21.5827 11.22 22.1727C10.6 22.7627 9.715 23.0577 8.565 23.0577L3.765 23.0577L3.765 21.6927L8.43 21.6927C9.25 21.6927 9.885 21.4827 10.335 21.0627C10.775 20.6427 10.995 20.0727 10.995 19.3527C10.995 18.6027 10.755 18.0027 10.275 17.5527C9.785 17.1027 9.075 16.8777 8.145 16.8777L3.765 16.8777L3.765 15.5127ZM3.66 9.6809C3.66 8.6309 3.94 7.7609 4.5 7.0709C5.06 6.3809 5.81 5.9559 6.75 5.7959L6.75 7.2359C6.16 7.3359 5.7 7.6109 5.37 8.0609C5.03 8.5009 4.86 9.0509 4.86 9.7109C4.86 10.1909 4.97 10.6309 5.19 11.0309C5.41 11.4209 5.75 11.7359 6.21 11.9759C6.66 12.2159 7.22 12.3359 7.89 12.3359C8.56 12.3359 9.125 12.2159 9.585 11.9759C10.035 11.7359 10.37 11.4209 10.59 11.0309C10.81 10.6309 10.92 10.1909 10.92 9.7109C10.92 9.0509 10.75 8.5009 10.41 8.0609C10.07 7.6109 9.605 7.3359 9.015 7.2359L9.015 5.7959C9.965 5.9559 10.72 6.3809 11.28 7.0709C11.83 7.7609 12.105 8.6309 12.105 9.6809C12.105 10.4709 11.935 11.1709 11.595 11.7809C11.255 12.3909 10.77 12.8709 10.14 13.2209C9.5 13.5609 8.75 13.7309 7.89 13.7309C7.03 13.7309 6.28 13.5609 5.64 13.2209C5 12.8709 4.51 12.3909 4.17 11.7809C3.83 11.1709 3.66 10.4709 3.66 9.6809ZM10.8 0.0794915L12 0.0794914L12 1.09949C12 1.93949 11.8 2.56949 11.4 2.98949C11 3.39949 10.33 3.60449 9.39 3.60449L4.95 3.60449L4.95 4.83449L3.765 4.83449L3.765 3.60449L1.71 3.60449L1.71 2.22449L3.765 2.22449L3.765 0.0944916L4.95 0.0944915L4.95 2.22449L9.42 2.22449C9.95 2.22449 10.315 2.12949 10.515 1.93949C10.705 1.73949 10.8 1.39949 10.8 0.919491L10.8 0.0794915Z" fill="white"/>
</svg>
